<svg xmlns="http://www.w3.org/2000/svg" viewBox="0 0 58 58" id="svg-e6d4" class="u-svg-content"><g id="Page-1" fill="none" fill-rule="evenodd"><g id="005---Diet-Calendar" fill-rule="nonzero"><path id="Shape" d="m58 16v39c0 1.6568542-1.3431458 3-3 3h-52c-1.65685425 0-3-1.3431458-3-3v-39z" fill="#bdc3c7"></path><path id="Shape" d="m56 16v39c.0562375 1.599348-1.193717 2.9419415-2.793 3h-48.414c-1.59928296-.0580585-2.84923751-1.400652-2.793-3v-39z" fill="#ecf0f1"></path><path id="Shape" d="m29 39h-22c-1.1045695 0-2 .8954305-2 2v10c0 1.1045695.8954305 2 2 2h22c1.1045695 0 2-.8954305 2-2v-10c0-1.1045695-.8954305-2-2-2zm-22 2h10v10h-10zm12 10v-10h10v10z" fill="#bdc3c7"></path><path id="Shape" d="m41 21h-34c-1.1045695 0-2 .8954305-2 2v10c0 1.1045695.8954305 2 2 2h34c1.1045695 0 2-.8954305 2-2v-10c0-1.1045695-.8954305-2-2-2zm-34 2h10v10h-10zm12 0h10v10h-10zm22 10h-10v-10h10z" fill="#bdc3c7"></path><path id="Shape" d="m11 31c-.2651948-.0000566-.5195073-.1054506-.707-.293l-2-2c-.37897221-.3923789-.37355237-1.0160848.01218142-1.4018186.3857338-.3857338 1.00943969-.3911536 1.40181858-.0121814l1.293 1.293 3.293-3.293c.3923789-.3789722 1.0160848-.3735524 1.4018186.0121814s.3911536 1.0094397.0121814 1.4018186l-4 4c-.1874927.1875494-.4418052.2929434-.707.293z" fill="#24ae5f"></path><path id="Shape" d="m23 31c-.2651948-.0000566-.5195073-.1054506-.707-.293l-2-2c-.3789722-.3923789-.3735524-1.0160848.0121814-1.4018186s1.0094397-.3911536 1.4018186-.0121814l1.293 1.293 3.293-3.293c.3923789-.3789722 1.0160848-.3735524 1.4018186.0121814s.3911536 1.0094397.0121814 1.4018186l-4 4c-.1874927.1875494-.4418052.2929434-.707.293z" fill="#24ae5f"></path><path id="Shape" d="m35 31c-.2651948-.0000566-.5195073-.1054506-.707-.293l-2-2c-.3789722-.3923789-.3735524-1.0160848.0121814-1.4018186s1.0094397-.3911536 1.4018186-.0121814l1.293 1.293 3.293-3.293c.3923789-.3789722 1.0160848-.3735524 1.4018186.0121814s.3911536 1.0094397.0121814 1.4018186l-4 4c-.1874927.1875494-.4418052.2929434-.707.293z" fill="#24ae5f"></path><path id="Shape" d="m11 49c-.2651948-.0000566-.5195073-.1054506-.707-.293l-2-2c-.37897221-.3923789-.37355237-1.0160848.01218142-1.4018186.3857338-.3857338 1.00943969-.3911536 1.40181858-.0121814l1.293 1.293 3.293-3.293c.3923789-.3789722 1.0160848-.3735524 1.4018186.0121814s.3911536 1.0094397.0121814 1.4018186l-4 4c-.1874927.1875494-.4418052.2929434-.707.293z" fill="#24ae5f"></path><path id="Shape" d="m23 49c-.2651948-.0000566-.5195073-.1054506-.707-.293l-2-2c-.3789722-.3923789-.3735524-1.0160848.0121814-1.4018186s1.0094397-.3911536 1.4018186-.0121814l1.293 1.293 3.293-3.293c.3923789-.3789722 1.0160848-.3735524 1.4018186.0121814s.3911536 1.0094397.0121814 1.4018186l-4 4c-.1874927.1875494-.4418052.2929434-.707.293z" fill="#24ae5f"></path><path id="Shape" d="m58 10v6h-58v-6c0-2.76142375 2.23857625-5 5-5v3c0 1.1045695.8954305 2 2 2s2-.8954305 2-2v-3h7v3c0 1.1045695.8954305 2 2 2s2-.8954305 2-2v-3h7v3c0 1.1045695.8954305 2 2 2s2-.8954305 2-2v-3h7v3c0 1.1045695.8954305 2 2 2s2-.8954305 2-2v-3h7v3c0 1.1045695.8954305 2 2 2s2-.8954305 2-2v-3c2.7614237 0 5 2.23857625 5 5z" fill="#c03a2b"></path><path id="Shape" d="m51.345 5c2.6640684.09983178 4.7455692 2.33560058 4.655 5v6h-54v-6c-.0905692-2.66439942 1.99093156-4.90016822 4.655-5z" fill="#e64c3c"></path><g fill="#bdc3c7"><path id="Shape" d="m9 2v6c0 1.1045695-.8954305 2-2 2s-2-.8954305-2-2v-6c.0032948-1.10320187.89679813-1.9967052 2-2 .53059053-.00282307 1.0395388.2101411 1.41.59.3798589.3704612.59282307.87940947.59 1.41z"></path><path id="Shape" d="m20 2v6c0 1.1045695-.8954305 2-2 2s-2-.8954305-2-2v-6c.0032948-1.10320187.8967981-1.9967052 2-2 .5305905-.00282307 1.0395388.2101411 1.41.59.3798589.3704612.5928231.87940947.59 1.41z"></path><path id="Shape" d="m31 2v6c0 1.1045695-.8954305 2-2 2s-2-.8954305-2-2v-6c.0032948-1.10320187.8967981-1.9967052 2-2 .5305905-.00282307 1.0395388.2101411 1.41.59.3798589.3704612.5928231.87940947.59 1.41z"></path><path id="Shape" d="m42 2v6c0 1.1045695-.8954305 2-2 2s-2-.8954305-2-2v-6c.0032948-1.10320187.8967981-1.9967052 2-2 .5305905-.00282307 1.0395388.2101411 1.41.59.3798589.3704612.5928231.87940947.59 1.41z"></path><path id="Shape" d="m53 2v6c0 1.1045695-.8954305 2-2 2s-2-.8954305-2-2v-6c.0032948-1.10320187.8967981-1.9967052 2-2 .5305905-.00282307 1.0395388.2101411 1.41.59.3798589.3704612.5928231.87940947.59 1.41z"></path>
</g><path id="Shape" d="m52.55 46.24c-1.23 4.44-4.65 7.41-7.62 6.64-.3250889-.081383-.6378534-.2058162-.93-.37-.2921466.1641838-.6049111.288617-.93.37-2.97.77-6.39-2.2-7.62-6.64s.17-8.64 3.15-9.41c1.2602093-.2768252 2.5787161-.0080387 3.63.74 1.0791527.6899269 2.4608473.6899269 3.54 0 1.0512839-.7480387 2.3697907-1.0168252 3.63-.74 2.98.77 4.39 4.98 3.15 9.41z" fill="#e64c3c"></path><path id="Shape" d="m44.41 35.87c-.24 1-1.86 1.46-3.6 1.02-1.4472446-.5788347-2.7733989-1.4233677-3.91-2.49-.1378816-.1129395-.1985011-.2951192-.1557763-.4681546.0427248-.1730355.1811731-.3060627.3557763-.3418454 1.5041575-.3671523 3.060897-.4686787 4.6-.3 1.75.43 2.96 1.59 2.71 2.58z" fill="#4fba6f"></path><path id="Shape" d="m44 40.826c-.5522847 0-1-.4477153-1-1v-1.385c0-5.162 3.644-6.436 3.8-6.487.5206425-.1693993 1.0807087.1113789 1.2564718.6299076.1757632.5185288-.0981346 1.0819918-.6144718 1.2640924-.116.042-2.441.935-2.441 4.593v1.385c.0000001.2653898-.105494.5198954-.2932467.7074606-.1877527.1875651-.4423636.2928048-.7077533.2925394z" fill="#805333"></path>
</g>
</g></svg>